# xmcd CD database file
#
# Track frame offsets:
#	150
#	12291
#	23241
#	34672
#	49743
#	59134
#	70234
#	87259
#	99182
#	114691
#	127133
#	142675
#
# Disc length: 2019 seconds
#
# Revision: 0
# Processed by: cddbd v1.5.2PL0 Copyright (c) Steve Scherf et al.
# Submitted via: CDex 1.51
#
DISCID=a107e10c
DTITLE=The Cordwood Draggers - A Starlight Shinding With...
DYEAR=2006
DGENRE=Country
TTITLE0=Jukebox Tell My Baby
TTITLE1=Kwitchurbelyakin
TTITLE2=Game Of Love
TTITLE3=Falling For You
TTITLE4=Where'd Ya Stay Last Night
TTITLE5=255 Flattie
TTITLE6=Ten Year Itch
TTITLE7=Little Martian Honey
TTITLE8=Honeslty
TTITLE9=Lover's Moon
TTITLE10=Lonesome Truck Driver Blues
TTITLE11=Rock Boppin' Again
EXTD=YEAR: 2006
EXTT0=
EXTT1=
EXTT2=
EXTT3=
EXTT4=
EXTT5=
EXTT6=
EXTT7=
EXTT8=
EXTT9=
EXTT10=
EXTT11=
PLAYORDER=
